Coordinates
version=1
nRows=12
nColumns=46
inDegrees=yes

Units are S.I. units (second, meters, Newtons, ...)
Angles are in degrees.

endheader
time	pelvis_tilt	pelvis_list	pelvis_rotation	pelvis_tx	pelvis_ty	pelvis_tz	bb_angle	bb_tx	bb_ty	bb_tz	hip_flexion_r	hip_adduction_r	hip_rotation_r	knee_angle_r	knee_angle_r_beta	ankle_angle_r	subtalar_angle_r	mtp_angle_r	crank_angle_r	hip_flexion_l	hip_adduction_l	hip_rotation_l	knee_angle_l	knee_angle_l_beta	ankle_angle_l	subtalar_angle_l	mtp_angle_l	crank_angle_l	lumbar_extension	lumbar_bending	lumbar_rotation	arm_flex_r	arm_add_r	arm_rot_r	elbow_flex_r	pro_sup_r	wrist_flex_r	wrist_dev_r	arm_flex_l	arm_add_l	arm_rot_l	elbow_flex_l	pro_sup_l	wrist_flex_l	wrist_dev_l
      5.00500000	    -19.48674547	     -5.73520850	      4.65605005	      0.34736078	      1.22063205	     -0.23154731	      0.00000000	      0.50000000	      0.00000000	      0.25000000	     52.92817109	    -10.83858167	     -9.69072724	     87.11629877	      1.52046625	     -8.61063334	      2.86182316	      0.00000000	      0.00000000	     50.28589760	     -8.27099197	      1.60765059	     47.74762763	      0.83335331	      8.31759913	      4.20193057	      0.00000000	      0.00000000	    -57.72774347	      1.27829405	      6.01560078	     69.37320295	    -23.35064564	     41.56587201	     42.36596273	     46.47455756	      0.00000000	      0.00000000	     72.84031222	     -3.95614228	     42.86508812	     41.46384925	     42.40276305	      0.00000000	      0.00000000
      5.01000000	    -19.57192420	     -6.32040228	      4.36617770	      0.34763836	      1.21743083	     -0.23214360	      0.00000000	      0.50000000	      0.00000000	      0.25000000	     54.35810419	    -10.76322125	     -9.74901870	     89.40962717	      1.56049238	     -7.30288239	      3.58210910	      0.00000000	      0.00000000	     49.22959697	     -8.91015707	      1.70540964	     46.05357500	      0.80378652	      7.28495946	      4.43751537	      0.00000000	      0.00000000	    -57.37657922	      1.75995188	      6.37929027	     69.60889369	    -23.13393067	     41.96635513	     42.22712278	     46.50787980	      0.00000000	      0.00000000	     72.30198754	     -4.21056617	     42.68318485	     41.40442632	     42.41052889	      0.00000000	      0.00000000
      5.01500000	    -19.50098044	     -6.88425758	      4.33475336	      0.34799298	      1.21443700	     -0.23259063	      0.00000000	      0.50000000	      0.00000000	      0.25000000	     55.55201609	    -10.89617789	    -10.04429758	     91.64498043	      1.59950665	     -6.05188861	      3.95846505	      0.00000000	      0.00000000	     48.00191178	     -9.36494536	      1.98643195	     44.34939405	      0.77404295	      6.32814632	      4.63921739	      0.00000000	      0.00000000	    -57.12544478	      2.40896090	      6.64777816	     69.68858341	    -22.93146268	     42.32843987	     42.17362066	     46.55001005	      0.00000000	      0.00000000	     71.83979032	     -4.49281515	     42.54893422	     41.44328031	     42.42923424	      0.00000000	      0.00000000
      5.02000000	    -19.47976057	     -7.31497827	      4.17291244	      0.34836447	      1.21154220	     -0.23349256	      0.00000000	      0.50000000	      0.00000000	      0.25000000	     56.88058878	    -11.10731018	    -10.05798486	     93.82787325	      1.63760532	     -4.75566311	      4.98640686	      0.00000000	      0.00000000	     46.68358374	     -9.68240444	      2.17013425	     42.58180219	      0.74319265	      5.36485726	      4.17358153	      0.00000000	      0.00000000	    -56.84884523	      2.94619939	      6.74290593	     69.75695789	    -22.63567139	     43.02821939	     42.12861535	     46.63758807	      0.00000000	      0.00000000	     71.22907256	     -4.93510175	     42.24641720	     41.71235811	     42.48389876	      0.00000000	      0.00000000
      5.02500000	    -19.41884348	     -8.04446957	      3.90726023	      0.34880754	      1.20872971	     -0.23436494	      0.00000000	      0.50000000	      0.00000000	      0.25000000	     58.11737986	    -10.96036340	    -10.32305267	     95.81304828	      1.67225316	     -3.93274699	      5.08922586	      0.00000000	      0.00000000	     45.49128058	    -10.40842512	      2.44888762	     41.09704242	      0.71727870	      4.73563431	      4.35408629	      0.00000000	      0.00000000	    -56.66214920	      3.70212903	      7.20794345	     69.86893391	    -22.33810131	     43.22827246	     42.22792584	     46.67468189	      0.00000000	      0.00000000	     70.72015565	     -4.92173735	     42.33009854	     41.77590513	     42.51960039	      0.00000000	      0.00000000
      5.03000000	    -19.33360448	     -8.44741718	      3.57615284	      0.34949080	      1.20641322	     -0.23520577	      0.00000000	      0.50000000	      0.00000000	      0.25000000	     59.35051950	    -10.99051557	    -10.19023336	     97.72254192	      1.70558011	     -2.52556094	      6.25224859	      0.00000000	      0.00000000	     44.07265867	    -10.92182249	      2.36331458	     39.42939873	      0.68817283	      3.57758295	      4.16288226	      0.00000000	      0.00000000	    -56.42655549	      4.22598678	      6.77463786	     71.37943208	    -21.67813851	     47.77185729	     40.40090979	     47.00403263	      0.00000000	      0.00000000	     69.24389620	     -6.72538094	     40.36307788	     43.81890249	     42.92075076	      0.00000000	      0.00000000
      5.03500000	    -19.31795641	     -9.03683428	      3.29825020	      0.34987440	      1.20410911	     -0.23612848	      0.00000000	      0.50000000	      0.00000000	      0.25000000	     60.63061976	    -10.88543905	    -10.32353614	     99.44678334	      1.73567380	     -1.64808342	      6.37658498	      0.00000000	      0.00000000	     42.93761859	    -11.62337805	      2.38777356	     38.04475699	      0.66400627	      2.74550928	      4.54493221	      0.00000000	      0.00000000	    -56.16243109	      4.86073425	      7.24284389	     71.40435486	    -21.56581409	     47.76796566	     40.48514385	     47.00824123	      0.00000000	      0.00000000	     68.84419435	     -6.94097665	     40.33121532	     43.65458209	     42.90857707	      0.00000000	      0.00000000
      5.04000000	    -19.20337313	     -9.22264134	      2.82039999	      0.35060871	      1.20232820	     -0.23680453	      0.00000000	      0.50000000	      0.00000000	      0.25000000	     61.91692545	    -10.83471234	     -9.87828858	    101.13974519	      1.76522156	     -0.61916310	      7.42801149	      0.00000000	      0.00000000	     41.41906770	    -12.10828986	      1.90533188	     36.53169774	      0.63759841	      1.77754476	      4.46640432	      0.00000000	      0.00000000	    -55.97030923	      5.02543322	      7.36377819	     71.29972052	    -21.24772397	     48.06962188	     40.38783366	     47.02556868	      0.00000000	      0.00000000	     68.51361203	     -7.19976774	     40.37914482	     43.32209633	     42.90472134	      0.00000000	      0.00000000
      5.04500000	    -19.10969864	     -9.68668996	      2.47658713	      0.35125967	      1.20075941	     -0.23768176	      0.00000000	      0.50000000	      0.00000000	      0.25000000	     63.11543653	    -10.68327235	     -9.84796750	    102.60552777	      1.79080429	      0.11758668	      7.71576704	      0.00000000	      0.00000000	     40.08327941	    -12.72711887	      1.77005669	     35.18946986	      0.61417211	      0.89147006	      4.62739021	      0.00000000	      0.00000000	    -55.79577003	      5.56138469	      7.76403826	     71.25167900	    -21.01294266	     48.23763958	     40.34469491	     47.03428149	      0.00000000	      0.00000000	     68.18542112	     -7.39391342	     40.46148014	     43.04173442	     42.89215033	      0.00000000	      0.00000000
      5.05000000	    -18.87628816	     -9.81934146	      1.88010590	      0.35213764	      1.19986479	     -0.23859292	      0.00000000	      0.50000000	      0.00000000	      0.25000000	     64.24797301	    -10.55138622	     -9.39193847	    103.96139216	      1.81446859	      0.90887426	      8.42932830	      0.00000000	      0.00000000	     38.37146220	    -13.23405092	      1.02106667	     33.77671100	      0.58951482	      0.07775139	      4.72656318	      0.00000000	      0.00000000	    -55.77082975	      5.64872937	      7.95106514	     71.48186598	    -20.52735413	     48.86552056	     39.74769324	     47.01126127	      0.00000000	      0.00000000	     68.20605591	     -7.65295643	     40.89898621	     42.23815393	     42.87307331	      0.00000000	      0.00000000
      5.05500000	    -18.70692763	    -10.16311701	      1.23826814	      0.35313193	      1.19909013	     -0.23913695	      0.00000000	      0.50000000	      0.00000000	      0.25000000	     65.37279549	    -10.16883603	     -9.19951770	    105.12580725	      1.83479147	      1.19691746	      8.79675271	      0.00000000	      0.00000000	     36.85257398	    -14.00850458	      0.25931634	     32.57707236	      0.56857717	     -0.76816492	      5.08884935	      0.00000000	      0.00000000	    -55.69298371	      5.90500220	      8.40289779	     71.55181332	    -20.10382576	     49.28909496	     39.34270018	     46.99147919	      0.00000000	      0.00000000	     68.06035062	     -7.89936488	     41.28967908	     41.58195915	     42.85784765	      0.00000000	      0.00000000
      5.06000000	    -18.39558935	    -10.47198897	      0.71617852	      0.35401619	      1.19878022	     -0.23960278	      0.00000000	      0.50000000	      0.00000000	      0.25000000	     66.31151715	     -9.87061392	     -9.08068622	    106.15780365	      1.85280320	      1.54850713	      9.05893010	      0.00000000	      0.00000000	     35.21067010	    -14.69908531	     -0.45674710	     31.41099215	      0.54822523	     -1.58143123	      5.60009815	      0.00000000	      0.00000000	    -55.69718063	      6.20014185	      8.75648147	     72.17588013	    -19.23011944	     50.80921296	     37.43636087	     46.86047422	      0.00000000	      0.00000000	     68.66954375	     -8.25971456	     43.50204670	     39.68433985	     43.02246916	      0.00000000	      0.00000000
